<?xml version="1.0" encoding="utf-8"?>
<!-- Generator: Adobe Illustrator 27.5.0, SVG Export Plug-In . SVG Version: 6.00 Build 0)  -->
<svg version="1.1" xmlns="http://www.w3.org/2000/svg" xmlns:xlink="http://www.w3.org/1999/xlink" x="0px" y="0px"
	 viewBox="0 0 500 500" style="enable-background:new 0 0 500 500;" xml:space="preserve">
<g id="Background_Simple">
	<g>
		<path style="fill:#92E3A9;" d="M464.856,277.39c-14.722,39.433-44.804,82.112-87.135,94.748
			c-63.961,19.098-71.602,70.655-186.163,65.873c-17.862-0.744-34.371-3.255-49.538-7.264c-8.153-2.154-15.92-4.753-23.291-7.747
			C51.804,395.892,16.892,336.231,13.994,273.806c-3.825-82.102,53.46-121.236,90.69-144.15
			c37.231-22.914,82.102-111.701,194.76-107.885c17.176,0.589,34.313,2.937,50.919,7.438c37.907,10.259,76.441,32.951,98.834,66.124
			c1.681,2.492,3.285,5.043,4.82,7.641C483.984,153.816,484.93,223.631,464.856,277.39z"/>
		<path style="opacity:0.7;fill:#FFFFFF;" d="M464.856,277.39c-14.722,39.433-44.804,82.112-87.135,94.748
			c-63.961,19.098-71.602,70.655-186.163,65.873c-17.862-0.744-34.371-3.255-49.538-7.264c-8.153-2.154-15.92-4.753-23.291-7.747
			C51.804,395.892,16.892,336.231,13.994,273.806c-3.825-82.102,53.46-121.236,90.69-144.15
			c37.231-22.914,82.102-111.701,194.76-107.885c17.176,0.589,34.313,2.937,50.919,7.438c37.907,10.259,76.441,32.951,98.834,66.124
			c1.681,2.492,3.285,5.043,4.82,7.641C483.984,153.816,484.93,223.631,464.856,277.39z"/>
	</g>
</g>
<g id="Pictures">
	<g style="opacity:0.3;">
		<rect x="396.247" y="109.32" style="fill:none;stroke:#000000;stroke-miterlimit:10;" width="76.753" height="107.454"/>
		<rect x="398.857" y="112.975" style="fill:none;stroke:#000000;stroke-miterlimit:10;" width="71.532" height="100.145"/>
		<rect x="417.654" y="139.29" style="fill:none;stroke:#000000;stroke-miterlimit:10;" width="33.939" height="47.514"/>
	</g>
	<g style="opacity:0.3;">
		<rect x="344.371" y="110" style="fill:none;stroke:#000000;stroke-miterlimit:10;" width="41.429" height="58"/>
		<rect x="345.78" y="111.973" style="fill:none;stroke:#000000;stroke-miterlimit:10;" width="38.61" height="54.054"/>
		<rect x="355.926" y="126.177" style="fill:none;stroke:#000000;stroke-miterlimit:10;" width="18.319" height="25.646"/>
	</g>
</g>
<g id="Plant">
	<g>
		
			<line style="fill:none;stroke:#5E5E5E;stroke-width:4;stroke-miterlimit:10;" x1="397.17" y1="434.205" x2="397.17" y2="356.722"/>
		
			<line style="fill:none;stroke:#5E5E5E;stroke-width:4;stroke-miterlimit:10;" x1="387.529" y1="435.771" x2="387.529" y2="328.76"/>
		
			<line style="fill:none;stroke:#5E5E5E;stroke-width:4;stroke-miterlimit:10;" x1="409.391" y1="436.293" x2="409.391" y2="398.708"/>
		<path style="fill:#92E3A9;" d="M383.784,339.312c0,0-1.935-3.546-8.383-11.284c-6.448-7.738-33.208-28.694-33.208-28.694
			s15.153,8.06,19.989,12.251c4.836,4.191,11.284,9.35,11.284,9.35s-18.055-19.667-19.989-20.957
			c-1.935-1.29,18.377,15.476,18.377,15.476s-7.738-15.476-11.607-20.634c-3.869-5.159-11.284-17.41-11.284-17.41
			s20.957,28.05,21.924,29.662c0.967,1.612,5.158,8.705,5.158,8.705l-7.415-19.345l9.028,15.798c0,0-12.896-26.76-13.541-28.05
			c-0.645-1.29,9.027,12.574,9.027,12.574l-8.383-25.148l19.345,39.656l-1.29-15.476l3.547,16.121l0.967-39.656l2.257,39.334
			c0,0,3.547-25.148,4.191-30.306c0.645-5.159,0.967-10.639,0.967-10.639s-0.645,34.175-0.645,35.143
			c0,0.967-0.645,8.705-0.645,8.705s4.836-14.508,6.126-18.377c1.29-3.869,2.579-17.088,3.224-19.022
			c0.645-1.934-3.224,29.662-3.547,30.951c-0.322,1.29-1.29,4.191-2.257,6.126c-0.967,1.934,7.093-11.607,9.995-17.41
			c2.902-5.803,8.383-16.765,8.383-16.765s-4.836,16.121-6.126,19.022c-1.29,2.902-9.672,18.377-9.672,18.377
			s12.574-14.831,18.055-18.7c5.481-3.869,15.476-11.284,15.476-11.284s-16.12,17.41-19.345,20.634
			c-3.224,3.224-12.574,14.508-12.574,14.508s16.12-10.317,17.088-11.284c0.967-0.967,12.574-8.383,12.574-8.383
			s-23.402,18.49-24.503,19.667c-9.35,9.995-12.574,14.831-14.508,16.765C389.91,341.246,386.686,342.214,383.784,339.312z"/>
		<path style="fill:#92E3A9;" d="M394.911,367.575c0,0-1.368-2.509-5.929-7.982c-4.561-5.473-23.489-20.297-23.489-20.297
			s10.719,5.701,14.139,8.666c3.421,2.965,7.982,6.614,7.982,6.614s-12.771-13.911-14.139-14.823
			c-1.368-0.912,12.999,10.947,12.999,10.947s-5.473-10.947-8.21-14.595c-2.737-3.649-7.982-12.315-7.982-12.315
			s14.823,19.841,15.507,20.981c0.684,1.14,3.649,6.157,3.649,6.157l-5.245-13.683l6.385,11.174c0,0-9.122-18.928-9.578-19.841
			c-0.456-0.912,6.385,8.894,6.385,8.894l-5.929-17.788l13.683,28.05l-0.912-10.947l2.509,11.403l0.684-28.05l1.596,27.822
			c0,0,2.509-17.788,2.965-21.437c0.456-3.649,0.684-7.526,0.684-7.526s-0.456,24.174-0.456,24.858c0,0.684-0.456,6.158-0.456,6.158
			s3.421-10.262,4.333-12.999c0.912-2.737,1.824-12.087,2.281-13.455c0.456-1.368-2.281,20.981-2.509,21.893
			c-0.228,0.912-0.912,2.965-1.596,4.333c-0.684,1.368,5.017-8.21,7.07-12.315c2.053-4.105,5.929-11.859,5.929-11.859
			s-3.421,11.403-4.333,13.455c-0.912,2.052-6.842,12.999-6.842,12.999s8.894-10.49,12.771-13.227
			c3.877-2.737,10.947-7.982,10.947-7.982s-11.402,12.315-13.683,14.595c-2.281,2.28-8.894,10.262-8.894,10.262
			s11.403-7.298,12.087-7.982c0.684-0.684,8.894-5.929,8.894-5.929s-16.553,13.078-17.332,13.911
			c-6.614,7.07-8.894,10.49-10.262,11.859C399.244,368.943,396.963,369.628,394.911,367.575z"/>
		<path style="fill:#92E3A9;" d="M406.518,400.138c0,0-1.368-2.509-5.929-7.982c-4.561-5.473-23.489-20.297-23.489-20.297
			s10.718,5.701,14.139,8.666c3.421,2.965,7.982,6.613,7.982,6.613s-12.771-13.911-14.139-14.823
			c-1.368-0.912,12.999,10.946,12.999,10.946s-5.473-10.946-8.21-14.595c-2.737-3.649-7.982-12.315-7.982-12.315
			s14.823,19.84,15.508,20.981c0.684,1.14,3.649,6.157,3.649,6.157l-5.245-13.683l6.385,11.174c0,0-9.122-18.928-9.578-19.84
			c-0.456-0.912,6.385,8.894,6.385,8.894l-5.929-17.788l13.683,28.05l-0.912-10.947l2.509,11.402l0.684-28.05l1.596,27.822
			c0,0,2.509-17.788,2.965-21.437c0.456-3.649,0.684-7.526,0.684-7.526s-0.456,24.174-0.456,24.858c0,0.684-0.456,6.157-0.456,6.157
			s3.421-10.262,4.333-12.999c0.912-2.737,1.824-12.087,2.281-13.455c0.456-1.368-2.281,20.981-2.509,21.893
			c-0.228,0.912-0.912,2.965-1.596,4.333c-0.684,1.368,5.017-8.21,7.069-12.315c2.053-4.105,5.929-11.859,5.929-11.859
			s-3.421,11.403-4.333,13.455c-0.912,2.052-6.842,12.999-6.842,12.999s8.894-10.49,12.771-13.227
			c3.877-2.737,10.946-7.982,10.946-7.982s-11.403,12.315-13.683,14.595c-2.28,2.281-8.894,10.262-8.894,10.262
			s11.402-7.298,12.087-7.982c0.684-0.684,8.894-5.929,8.894-5.929s-16.553,13.079-17.332,13.911
			c-6.613,7.07-8.894,10.49-10.262,11.859C410.851,401.507,408.57,402.191,406.518,400.138z"/>
		<g>
			<path style="fill:#FFFFFF;stroke:#263238;stroke-miterlimit:10;" d="M418.227,482.258c1.737-6.238,2.722-13.343,2.722-20.888
				c0-1.327-0.028-2.647-0.091-3.947c-0.154-3.399-0.513-6.692-1.046-9.831c-0.204-1.194-0.428-2.366-0.681-3.511
				c-0.211-0.955-0.435-1.889-0.681-2.809c-1.152-4.347-2.661-8.293-4.466-11.692h-33.44c-1.805,3.399-3.315,7.345-4.466,11.692
				c-0.246,0.92-0.47,1.854-0.681,2.809c-0.253,1.145-0.478,2.317-0.681,3.511c-0.534,3.139-0.892,6.432-1.046,9.831
				c-0.063,1.299-0.091,2.619-0.091,3.947c0,7.546,0.986,14.65,2.722,20.888H418.227z"/>
			<path style="fill:#263238;stroke:#263238;stroke-miterlimit:10;" d="M418.449,441.272h-42.372
				c-0.246,0.92-0.47,1.854-0.681,2.809h43.735C418.92,443.126,418.695,442.192,418.449,441.272z M419.812,447.592h-45.097
				c-0.534,3.139-0.892,6.432-1.046,9.831h47.19C420.703,454.024,420.345,450.731,419.812,447.592z"/>
		</g>
	</g>
</g>
<g id="Screen">
	<g>
		<path style="fill:#263238;stroke:#263238;stroke-miterlimit:10;" d="M318.813,310.189H35.878V25.694
			c0-3.149,2.553-5.702,5.702-5.702h277.233V310.189z"/>
		<g>
			<g>
				<path style="fill:#FFFFFF;stroke:#263238;stroke-miterlimit:10;" d="M331.219,301.62H44.658V15.5c0-3.038,2.463-5.5,5.5-5.5
					h275.561c3.038,0,5.5,2.462,5.5,5.5V301.62z"/>
				<path style="fill:#ABABAB;" d="M118.851,301.62H44.658V15.5c0-3.038,2.463-5.5,5.5-5.5h63.193c3.037,0,5.5,2.462,5.5,5.5V301.62
					z"/>
				<path style="fill:#92E3A9;stroke:#263238;stroke-miterlimit:10;" d="M331.219,41.651H44.658V15.5c0-3.038,2.463-5.5,5.5-5.5
					h275.561c3.038,0,5.5,2.462,5.5,5.5V41.651z"/>
				<path style="fill:#263238;stroke:#263238;stroke-miterlimit:10;" d="M331.219,30.42H44.658V15.5c0-3.038,2.463-5.5,5.5-5.5
					h275.561c3.038,0,5.5,2.462,5.5,5.5V30.42z"/>
				<path style="fill:#FFFFFF;stroke:#263238;stroke-miterlimit:10;" d="M292.701,20.825c0-2.409-1.953-4.363-4.363-4.363
					c-2.409,0-4.363,1.953-4.363,4.363s1.953,4.363,4.363,4.363C290.747,25.188,292.701,23.235,292.701,20.825z"/>
				<path style="fill:#FFFFFF;stroke:#263238;stroke-miterlimit:10;" d="M309.424,20.825c0-2.409-1.953-4.363-4.363-4.363
					s-4.363,1.953-4.363,4.363s1.953,4.363,4.363,4.363S309.424,23.235,309.424,20.825z"/>
				<path style="fill:#FFFFFF;stroke:#263238;stroke-miterlimit:10;" d="M326.148,20.825c0-2.409-1.953-4.363-4.363-4.363
					c-2.41,0-4.363,1.953-4.363,4.363s1.953,4.363,4.363,4.363C324.194,25.188,326.148,23.235,326.148,20.825z"/>
			</g>
			<line style="fill:none;stroke:#263238;stroke-miterlimit:10;" x1="140.632" y1="40.97" x2="140.632" y2="34.164"/>
			<line style="fill:none;stroke:#263238;stroke-miterlimit:10;" x1="182.834" y1="40.97" x2="182.834" y2="34.164"/>
			<line style="fill:none;stroke:#263238;stroke-miterlimit:10;" x1="225.035" y1="40.97" x2="225.035" y2="34.164"/>
			<line style="fill:none;stroke:#263238;stroke-miterlimit:10;" x1="267.237" y1="40.97" x2="267.237" y2="34.164"/>
			<line style="fill:none;stroke:#263238;stroke-miterlimit:10;" x1="309.438" y1="40.97" x2="309.438" y2="34.164"/>
			<g>
				<rect x="133.826" y="68.004" style="fill:#FFFFFF;stroke:#263238;stroke-miterlimit:10;" width="181.058" height="179.696"/>
				<line style="fill:none;stroke:#263238;stroke-miterlimit:10;" x1="235.207" y1="113.24" x2="259.593" y2="113.24"/>
				<line style="fill:none;stroke:#263238;stroke-miterlimit:10;" x1="235.207" y1="131.157" x2="259.593" y2="131.157"/>
				<line style="fill:none;stroke:#263238;stroke-miterlimit:10;" x1="235.207" y1="149.073" x2="259.593" y2="149.073"/>
				<g>
					<line style="fill:none;stroke:#263238;stroke-miterlimit:10;" x1="188.435" y1="188.514" x2="200.323" y2="188.514"/>
					<line style="fill:none;stroke:#263238;stroke-miterlimit:10;" x1="160.656" y1="188.514" x2="185.725" y2="188.514"/>
					<line style="fill:none;stroke:#263238;stroke-miterlimit:10;" x1="148.8" y1="188.514" x2="157.269" y2="188.514"/>
					<line style="fill:none;stroke:#263238;stroke-miterlimit:10;" x1="169.125" y1="194.016" x2="200.323" y2="194.016"/>
					<line style="fill:none;stroke:#263238;stroke-miterlimit:10;" x1="148.8" y1="194.016" x2="166.415" y2="194.016"/>
					<line style="fill:none;stroke:#263238;stroke-miterlimit:10;" x1="187.418" y1="199.519" x2="200.323" y2="199.519"/>
					<line style="fill:none;stroke:#263238;stroke-miterlimit:10;" x1="163.367" y1="199.519" x2="184.031" y2="199.519"/>
					<line style="fill:none;stroke:#263238;stroke-miterlimit:10;" x1="148.8" y1="199.519" x2="160.318" y2="199.519"/>
					<line style="fill:none;stroke:#263238;stroke-miterlimit:10;" x1="148.8" y1="205.021" x2="200.323" y2="205.021"/>
					<line style="fill:none;stroke:#263238;stroke-miterlimit:10;" x1="170.142" y1="210.524" x2="200.323" y2="210.524"/>
					<line style="fill:none;stroke:#263238;stroke-miterlimit:10;" x1="148.8" y1="210.524" x2="166.415" y2="210.524"/>
					<line style="fill:none;stroke:#263238;stroke-miterlimit:10;" x1="191.483" y1="216.026" x2="200.323" y2="216.026"/>
					<line style="fill:none;stroke:#263238;stroke-miterlimit:10;" x1="148.8" y1="216.026" x2="188.773" y2="216.026"/>
					<line style="fill:none;stroke:#263238;stroke-miterlimit:10;" x1="192.838" y1="221.529" x2="200.323" y2="221.529"/>
					<line style="fill:none;stroke:#263238;stroke-miterlimit:10;" x1="162.35" y1="221.529" x2="190.806" y2="221.529"/>
					<line style="fill:none;stroke:#263238;stroke-miterlimit:10;" x1="148.8" y1="221.529" x2="160.318" y2="221.529"/>
					<line style="fill:none;stroke:#263238;stroke-miterlimit:10;" x1="194.193" y1="227.031" x2="200.323" y2="227.031"/>
					<line style="fill:none;stroke:#263238;stroke-miterlimit:10;" x1="173.868" y1="227.031" x2="190.467" y2="227.031"/>
					<line style="fill:none;stroke:#263238;stroke-miterlimit:10;" x1="148.8" y1="227.031" x2="171.497" y2="227.031"/>
				</g>
				<g>
					<line style="fill:none;stroke:#263238;stroke-miterlimit:10;" x1="295.888" y1="108.299" x2="304.841" y2="108.299"/>
					<line style="fill:none;stroke:#263238;stroke-miterlimit:10;" x1="274.969" y1="108.299" x2="293.847" y2="108.299"/>
					<line style="fill:none;stroke:#263238;stroke-miterlimit:10;" x1="266.04" y1="108.299" x2="272.418" y2="108.299"/>
					<line style="fill:none;stroke:#263238;stroke-miterlimit:10;" x1="281.347" y1="114.778" x2="304.841" y2="114.778"/>
					<line style="fill:none;stroke:#263238;stroke-miterlimit:10;" x1="266.04" y1="114.778" x2="279.306" y2="114.778"/>
					<line style="fill:none;stroke:#263238;stroke-miterlimit:10;" x1="295.123" y1="121.257" x2="304.841" y2="121.257"/>
					<line style="fill:none;stroke:#263238;stroke-miterlimit:10;" x1="277.01" y1="121.257" x2="292.572" y2="121.257"/>
					<line style="fill:none;stroke:#263238;stroke-miterlimit:10;" x1="266.04" y1="121.257" x2="274.714" y2="121.257"/>
					<line style="fill:none;stroke:#263238;stroke-miterlimit:10;" x1="266.04" y1="127.736" x2="304.841" y2="127.736"/>
					<line style="fill:none;stroke:#263238;stroke-miterlimit:10;" x1="282.112" y1="134.215" x2="304.841" y2="134.215"/>
					<line style="fill:none;stroke:#263238;stroke-miterlimit:10;" x1="266.04" y1="134.215" x2="279.306" y2="134.215"/>
					<line style="fill:none;stroke:#263238;stroke-miterlimit:10;" x1="298.184" y1="140.694" x2="304.841" y2="140.694"/>
					<line style="fill:none;stroke:#263238;stroke-miterlimit:10;" x1="266.04" y1="140.694" x2="296.143" y2="140.694"/>
					<line style="fill:none;stroke:#263238;stroke-miterlimit:10;" x1="299.205" y1="147.173" x2="304.841" y2="147.173"/>
					<line style="fill:none;stroke:#263238;stroke-miterlimit:10;" x1="276.245" y1="147.173" x2="297.674" y2="147.173"/>
					<line style="fill:none;stroke:#263238;stroke-miterlimit:10;" x1="266.04" y1="147.173" x2="274.714" y2="147.173"/>
					<line style="fill:none;stroke:#263238;stroke-miterlimit:10;" x1="300.225" y1="153.651" x2="304.841" y2="153.651"/>
					<line style="fill:none;stroke:#263238;stroke-miterlimit:10;" x1="284.918" y1="153.651" x2="297.419" y2="153.651"/>
					<line style="fill:none;stroke:#263238;stroke-miterlimit:10;" x1="266.04" y1="153.651" x2="283.133" y2="153.651"/>
				</g>
				<g>
					<g>
						<path style="fill:#92E3A9;stroke:#263238;stroke-miterlimit:10;" d="M174.988,160.382c-4.783,0-9.51-1.219-13.671-3.526
							l3.728-6.723c3.023,1.676,6.462,2.562,9.944,2.562c11.327,0,20.542-9.215,20.542-20.543c0-3.78-1.034-7.473-2.99-10.68
							l6.563-4.003c2.692,4.413,4.115,9.491,4.115,14.684C203.218,147.718,190.554,160.382,174.988,160.382z"/>
					</g>
					<g>
						<path style="fill:#263238;stroke:#263238;stroke-miterlimit:10;" d="M161.317,156.856
							c-8.98-4.979-14.559-14.445-14.559-24.704c0-13.378,9.504-25.014,22.599-27.667l1.526,7.534
							c-9.525,1.929-16.438,10.396-16.438,20.133c0,7.466,4.061,14.356,10.599,17.981L161.317,156.856z"/>
					</g>
					<g>
						<path style="fill:#ABABAB;stroke:#263238;stroke-miterlimit:10;" d="M192.54,121.472c-3.767-6.175-10.329-9.862-17.552-9.862
							c-1.383,0-2.764,0.138-4.105,0.41l-1.527-7.534c1.842-0.373,3.737-0.562,5.632-0.562c9.925,0,18.939,5.064,24.114,13.546
							L192.54,121.472z"/>
					</g>
				</g>
				<rect x="221.77" y="108.761" style="fill:#92E3A9;stroke:#263238;stroke-miterlimit:10;" width="8.461" height="8.46"/>
				<rect x="221.77" y="126.926" style="fill:#263238;stroke:#263238;stroke-miterlimit:10;" width="8.461" height="8.46"/>
				<rect x="221.77" y="145.092" style="fill:#ABABAB;stroke:#263238;stroke-miterlimit:10;" width="8.461" height="8.46"/>
				<g>
					<rect x="219.332" y="195.017" style="fill:#263238;" width="12.505" height="33.515"/>
					<rect x="235.839" y="180.01" style="fill:#92E3A9;stroke:#263238;stroke-miterlimit:10;" width="12.506" height="48.522"/>
					<rect x="252.346" y="202.52" style="fill:#263238;" width="12.506" height="26.012"/>
					<rect x="268.854" y="187.013" style="fill:#92E3A9;stroke:#263238;stroke-miterlimit:10;" width="12.506" height="41.519"/>
					<rect x="285.361" y="173.507" style="fill:#263238;" width="12.506" height="55.025"/>
				</g>
				<rect x="198.489" y="80.936" style="fill:#263238;" width="63.983" height="6.126"/>
			</g>
			<g>
				<rect x="52.826" y="60.346" style="fill:#FFFFFF;stroke:#263238;stroke-miterlimit:10;" width="57.857" height="61.941"/>
				<g>
					<g>
						<path style="fill:#92E3A9;" d="M81.755,101.837c-2.716,0-5.401-0.692-7.764-2.003l2.117-3.818
							c1.717,0.952,3.67,1.455,5.647,1.455c6.433,0,11.666-5.233,11.666-11.666c0-2.147-0.587-4.244-1.698-6.065l3.727-2.273
							c1.529,2.506,2.337,5.39,2.337,8.339C97.786,94.645,90.594,101.837,81.755,101.837z"/>
					</g>
					<g>
						<path style="fill:#263238;" d="M73.991,99.834c-5.1-2.827-8.268-8.203-8.268-14.029c0-7.598,5.397-14.206,12.834-15.712
							l0.867,4.279c-5.409,1.096-9.335,5.904-9.335,11.433c0,4.24,2.306,8.153,6.019,10.211L73.991,99.834z"/>
					</g>
					<g>
						<path style="fill:#ABABAB;" d="M91.722,79.74c-2.139-3.507-5.866-5.6-9.968-5.6c-0.786,0-1.57,0.078-2.331,0.232l-0.867-4.279
							c1.046-0.212,2.122-0.319,3.198-0.319c5.636,0,10.756,2.876,13.694,7.693L91.722,79.74z"/>
					</g>
				</g>
				<g>
					<line style="fill:none;stroke:#263238;stroke-miterlimit:10;" x1="92.202" y1="107.407" x2="101.155" y2="107.407"/>
					<line style="fill:none;stroke:#263238;stroke-miterlimit:10;" x1="71.283" y1="107.407" x2="90.161" y2="107.407"/>
					<line style="fill:none;stroke:#263238;stroke-miterlimit:10;" x1="62.354" y1="107.407" x2="68.732" y2="107.407"/>
					<line style="fill:none;stroke:#263238;stroke-miterlimit:10;" x1="77.66" y1="110.462" x2="101.155" y2="110.462"/>
					<line style="fill:none;stroke:#263238;stroke-miterlimit:10;" x1="62.354" y1="110.462" x2="75.62" y2="110.462"/>
					<line style="fill:none;stroke:#263238;stroke-miterlimit:10;" x1="91.437" y1="113.518" x2="101.155" y2="113.518"/>
					<line style="fill:none;stroke:#263238;stroke-miterlimit:10;" x1="73.324" y1="113.518" x2="88.885" y2="113.518"/>
					<line style="fill:none;stroke:#263238;stroke-miterlimit:10;" x1="62.354" y1="113.518" x2="71.028" y2="113.518"/>
				</g>
			</g>
			<g>
				<rect x="52.826" y="144.238" style="fill:#FFFFFF;stroke:#263238;stroke-miterlimit:10;" width="57.857" height="61.941"/>
				<g>
					<line style="fill:none;stroke:#263238;stroke-miterlimit:10;" x1="93.32" y1="151.061" x2="104.134" y2="151.061"/>
					<line style="fill:none;stroke:#263238;stroke-miterlimit:10;" x1="68.053" y1="151.061" x2="79.547" y2="151.061"/>
					<line style="fill:none;stroke:#263238;stroke-miterlimit:10;" x1="57.269" y1="151.061" x2="64.972" y2="151.061"/>
					<line style="fill:none;stroke:#263238;stroke-miterlimit:10;" x1="75.756" y1="157.54" x2="79.366" y2="157.54"/>
					<line style="fill:none;stroke:#263238;stroke-miterlimit:10;" x1="57.269" y1="157.54" x2="73.291" y2="157.54"/>
					<line style="fill:none;stroke:#263238;stroke-miterlimit:10;" x1="70.518" y1="164.018" x2="79.366" y2="164.018"/>
					<line style="fill:none;stroke:#263238;stroke-miterlimit:10;" x1="57.269" y1="164.018" x2="67.745" y2="164.018"/>
					<line style="fill:none;stroke:#263238;stroke-miterlimit:10;" x1="57.269" y1="170.497" x2="79.366" y2="170.497"/>
					<line style="fill:none;stroke:#263238;stroke-miterlimit:10;" x1="76.681" y1="176.976" x2="104.134" y2="176.976"/>
					<line style="fill:none;stroke:#263238;stroke-miterlimit:10;" x1="57.269" y1="176.976" x2="73.291" y2="176.976"/>
					<line style="fill:none;stroke:#263238;stroke-miterlimit:10;" x1="96.093" y1="183.455" x2="104.134" y2="183.455"/>
					<line style="fill:none;stroke:#263238;stroke-miterlimit:10;" x1="57.269" y1="183.455" x2="93.628" y2="183.455"/>
					<line style="fill:none;stroke:#263238;stroke-miterlimit:10;" x1="97.326" y1="189.934" x2="104.134" y2="189.934"/>
					<line style="fill:none;stroke:#263238;stroke-miterlimit:10;" x1="69.594" y1="189.934" x2="95.477" y2="189.934"/>
					<line style="fill:none;stroke:#263238;stroke-miterlimit:10;" x1="57.269" y1="189.934" x2="67.745" y2="189.934"/>
					<line style="fill:none;stroke:#263238;stroke-miterlimit:10;" x1="98.558" y1="196.413" x2="104.134" y2="196.413"/>
					<line style="fill:none;stroke:#263238;stroke-miterlimit:10;" x1="80.07" y1="196.413" x2="95.169" y2="196.413"/>
					<line style="fill:none;stroke:#263238;stroke-miterlimit:10;" x1="57.269" y1="196.413" x2="77.913" y2="196.413"/>
				</g>
				<g>
					<rect x="81.458" y="151.107" style="fill:none;stroke:#263238;stroke-miterlimit:10;" width="22.676" height="22.676"/>
					<polyline style="fill:none;stroke:#263238;stroke-miterlimit:10;" points="81.458,173.783 90.142,164.133 94.484,167.028 
						100.757,159.791 103.651,161.238 					"/>
					<circle style="fill:none;stroke:#263238;stroke-miterlimit:10;" cx="88.212" cy="157.379" r="3.377"/>
				</g>
			</g>
			<g>
				<rect x="52.826" y="224.047" style="fill:#FFFFFF;stroke:#263238;stroke-miterlimit:10;" width="57.857" height="61.941"/>
				<g>
					<line style="fill:none;stroke:#263238;stroke-miterlimit:10;" x1="78.109" y1="259.512" x2="100.838" y2="259.512"/>
					<line style="fill:none;stroke:#263238;stroke-miterlimit:10;" x1="62.037" y1="259.512" x2="75.303" y2="259.512"/>
					<line style="fill:none;stroke:#263238;stroke-miterlimit:10;" x1="94.181" y1="265.991" x2="100.838" y2="265.991"/>
					<line style="fill:none;stroke:#263238;stroke-miterlimit:10;" x1="62.037" y1="265.991" x2="92.14" y2="265.991"/>
					<line style="fill:none;stroke:#263238;stroke-miterlimit:10;" x1="95.201" y1="272.47" x2="100.838" y2="272.47"/>
					<line style="fill:none;stroke:#263238;stroke-miterlimit:10;" x1="72.241" y1="272.47" x2="93.671" y2="272.47"/>
					<line style="fill:none;stroke:#263238;stroke-miterlimit:10;" x1="62.037" y1="272.47" x2="70.711" y2="272.47"/>
					<line style="fill:none;stroke:#263238;stroke-miterlimit:10;" x1="96.222" y1="278.948" x2="100.838" y2="278.948"/>
					<line style="fill:none;stroke:#263238;stroke-miterlimit:10;" x1="80.915" y1="278.948" x2="93.416" y2="278.948"/>
					<line style="fill:none;stroke:#263238;stroke-miterlimit:10;" x1="62.037" y1="278.948" x2="79.129" y2="278.948"/>
				</g>
				<g>
					<rect x="62.332" y="240.664" style="fill:#263238;" width="6.127" height="14.84"/>
					<rect x="70.42" y="234.019" style="fill:#92E3A9;stroke:#263238;stroke-miterlimit:10;" width="6.127" height="21.484"/>
					<rect x="78.507" y="243.986" style="fill:#263238;" width="6.127" height="11.517"/>
					<rect x="86.594" y="237.12" style="fill:#92E3A9;stroke:#263238;stroke-miterlimit:10;" width="6.127" height="18.383"/>
					<rect x="94.681" y="231.14" style="fill:#263238;" width="6.127" height="24.364"/>
				</g>
			</g>
		</g>
	</g>
</g>
<g id="Character_1_">
	<g>
		<g>
			<path style="fill:#D4D4D4;stroke:#263238;stroke-miterlimit:10;" d="M263.92,482.258V366.099c0-4.26-3.374-7.714-7.535-7.714
				H126.918c-4.161,0-7.535,3.454-7.535,7.714v116.159H263.92z"/>
			<path style="fill:#D4D4D4;stroke:#263238;stroke-miterlimit:10;" d="M278.337,482.258V366.099c0-4.26-3.374-7.714-7.535-7.714
				H141.335c-4.161,0-7.535,3.454-7.535,7.714v116.159H278.337z"/>
		</g>
		<g>
			<path style="fill:#D4D4D4;stroke:#263238;stroke-miterlimit:10;" d="M350.71,482.258V425.96c0-3.277-2.595-5.934-5.796-5.934
				h-73.138c-3.201,0-5.796,2.657-5.796,5.934v56.298H350.71z"/>
			<path style="fill:#D4D4D4;stroke:#263238;stroke-miterlimit:10;" d="M350.709,482.258V426.15c0-3.382-2.515-6.123-5.617-6.123
				h-29.581c-3.102,0-5.617,2.742-5.617,6.123v56.108H350.709z"/>
		</g>
		<g>
			<path style="fill:#263238;stroke:#263238;stroke-miterlimit:10;" d="M336.538,482.258c-12.996-8.304-43.94-28.435-50.309-35.866
				c-8.11-9.461-9.799-12.502-16.219-12.164c-6.42,0.338-71.973,9.461-71.973,9.461s-4.393,5.406-5.406,12.164
				c-0.844,5.624,6.03,21.298,8.363,26.405H336.538z"/>
			<path style="fill:#92E3A9;stroke:#263238;stroke-miterlimit:10;" d="M224.055,307.852c1.012,0.053,20.274,2.027,28.046,5.406
				c7.772,3.379,24.329,7.772,29.735,10.137c5.406,2.365,8.447,5.069,9.123,12.164c0.676,7.096,7.096,33.452,8.11,37.845
				s2.703,22.977,0.676,28.722c-2.027,5.744-26.018,6.42-26.018,6.42s-0.338,9.123,1.014,14.192
				c1.352,5.069,4.731,13.178-6.42,15.206c-11.151,2.027-68.594,14.192-72.649,11.489c-4.055-2.703-2.365-23.653-2.365-28.722
				c0-5.068-5.068-15.543-5.068-15.543s-8.448,2.027-14.192,4.731c-5.744,2.703-13.178,1.352-22.639-1.689
				c-9.461-3.041-10.137-11.827-12.84-17.233s9.123-13.178,11.489-17.233c2.365-4.055,18.585-41.224,19.26-45.279
				c0.676-4.055,9.799-5.069,21.964-8.786C191.279,319.679,217.635,307.514,224.055,307.852z"/>
			<g>
				<path style="fill:none;stroke:#263238;stroke-miterlimit:10;" d="M210.574,437.931c8.81-9.661,30.296-32.131,45.864-39.418"/>
				<path style="fill:none;stroke:#263238;stroke-miterlimit:10;" d="M206.561,442.422c0,0,0.863-0.999,2.395-2.704"/>
				<path style="fill:none;stroke:#263238;stroke-miterlimit:10;" d="M225.195,417.11c0.895-0.684,1.792-1.345,2.681-1.971"/>
				<path style="fill:none;stroke:#263238;stroke-miterlimit:10;" d="M208.266,432.191c0,0,5.922-6.042,12.873-11.836"/>
			</g>
			<path style="fill:#FFFFFF;stroke:#263238;stroke-miterlimit:10;" d="M175.821,353.514c3.025,11.288,7.228,26.559,8.874,30.598
				c2.696,6.619,4.412,17.895,4.412,17.895"/>
			<path style="fill:#FFFFFF;stroke:#263238;stroke-miterlimit:10;" d="M172.438,340.725c0,0,0.975,3.75,2.39,9.071"/>
			<path style="fill:none;stroke:#263238;stroke-miterlimit:10;" d="M170.6,366.737c-1.619-1.157-3.242-1.824-4.78-2.234"/>
			<path style="fill:none;stroke:#263238;stroke-miterlimit:10;" d="M163.07,372.141c3.693,0.792,8.153,2.387,10.594,5.599
				c4.658,6.128,6.374,9.07,6.374,9.07s0.49-4.658-2.942-11.766c-1.138-2.356-2.356-4.201-3.611-5.65"/>
			<path style="fill:none;stroke:#263238;stroke-miterlimit:10;" d="M156.995,371.366c0,0,0.95,0.019,2.419,0.184"/>
			<path style="fill:none;stroke:#263238;stroke-miterlimit:10;" d="M151.112,377.494c0,0,8.825-4.167,17.404-0.735"/>
			<g>
				<line style="fill:#FFFFFF;stroke:#263238;stroke-miterlimit:10;" x1="279.55" y1="350.231" x2="271.962" y2="403.969"/>
				<line style="fill:#FFFFFF;stroke:#263238;stroke-miterlimit:10;" x1="281.031" y1="339.744" x2="280.216" y2="345.517"/>
				<path style="fill:none;stroke:#263238;stroke-miterlimit:10;" d="M292.001,373.174c2.942-1.624,4.964-2.053,4.964-2.053"/>
				<path style="fill:none;stroke:#263238;stroke-miterlimit:10;" d="M273.432,397.595c0,0,0.735-5.638,8.089-15.198
					c2.831-3.681,5.772-6.199,8.318-7.904"/>
				<path style="fill:none;stroke:#263238;stroke-miterlimit:10;" d="M274.413,398.085c0,0,8.089-10.541,17.404-11.521"/>
			</g>
			<path style="fill:#FFFFFF;stroke:#263238;stroke-miterlimit:10;" d="M220,305.149c0,0-5.744,0.338-7.096,3.379
				c-1.352,3.041-1.352,29.06-1.352,29.06s19.598-7.434,22.301-7.434s23.653,8.11,23.653,8.11s-2.703-18.922-7.434-26.356
				c-4.73-7.434-12.84-7.096-15.543-7.096S220,305.149,220,305.149z"/>
			<path style="fill:#FFFFFF;stroke:#263238;stroke-miterlimit:10;" d="M214.932,302.784l1.352,7.096
				c0,0,17.233,33.114,19.26,30.749c2.027-2.365,12.165-29.397,12.165-29.397l0.676-9.461c0,0-8.11,5.406-12.84,5.406
				s-19.26-7.772-19.26-7.772L214.932,302.784z"/>
			<path style="fill:#263238;stroke:#263238;stroke-miterlimit:10;" d="M248.384,301.77c0,0-8.11,5.406-12.84,5.406
				s-19.26-7.772-19.26-7.772l-1.352,3.379l1.352,7.096c0,0,3.889,7.472,8.189,15.064c0.642-0.247,1.297-0.549,1.971-0.926
				C245.281,313.468,248.384,301.77,248.384,301.77z"/>
			<g>
				<path style="fill:#FFFFFF;stroke:#263238;stroke-miterlimit:10;" d="M207.382,276.938c0,0-3.888-7.775-6.609-1.166
					c-2.721,6.609,8.941,15.55,8.941,15.55L207.382,276.938z"/>
				<path style="fill:#FFFFFF;stroke:#263238;stroke-miterlimit:10;" d="M253.07,275.205c0,0,3.683-7.597,5.627-0.599
					c1.944,6.997-5.988,15.939-5.988,15.939L253.07,275.205z"/>
				<path style="fill:#FFFFFF;stroke:#263238;stroke-miterlimit:10;" d="M206.605,274.995c0,0,2.721,20.604,4.276,24.102
					c1.326,2.983,13.511,13.49,17.073,16.521c0.629,0.536,1.422,0.828,2.249,0.826c1.977-0.007,5.67-0.058,6.79-0.338
					c1.555-0.389,11.986-10.011,14.318-15.453c2.332-5.442,1.555-36.931,1.555-36.931s-1.166-20.604-3.499-23.325
					c-2.333-2.721-31.489-2.721-38.875,1.166c-7.386,3.887-7.386,10.496-6.22,14.384
					C205.438,259.833,206.605,274.995,206.605,274.995z"/>
				<path style="fill:#263238;stroke:#263238;stroke-miterlimit:10;" d="M239.77,233.824c-12.377-1.954-17.097,1.63-24.216,6.158
					c-2.116,0.429-3.873,0.954-5.062,1.58c-7.386,3.887-7.386,10.496-6.22,14.384c1.166,3.887,2.333,19.049,2.333,19.049
					l2.721,0.389c0,0,0.389-8.941,0.777-10.108c0.389-1.166,5.054-6.609,5.443-9.33c0.389-2.721-0.389-10.496-0.389-10.496
					s4.276,13.606,20.604,18.271c4.277,1.222,8.31,1.745,11.946,1.762c0.216,2.23,0.598,4.342,1.272,4.847
					c1.555,1.166,1.555,1.166,1.555,1.166s-0.389,5.443,0.778,6.609c0.443,0.443,1.055,0.717,1.664,0.823
					c0.049-5.909-0.032-11.316-0.079-13.789c7.373-1.051,6.273-3.78,6.509-7.076C259.793,252.621,254.542,236.156,239.77,233.824z"
					/>
				<path style="fill:none;stroke:#263238;stroke-miterlimit:10;" d="M226,291.267c0,0,1.624,2.707,4.331,3.429
					c2.707,0.722,5.594,0.902,8.663-3.79"/>
				<path style="fill:none;stroke:#263238;stroke-miterlimit:10;" d="M221.669,297.944c0,0,3.429,4.151,10.828,3.79
					c7.399-0.361,10.106-3.429,10.106-3.429"/>
				<path style="fill:none;stroke:#263238;stroke-miterlimit:10;" d="M216.796,281.882c0,0,4.331,2.527,9.384,0.722"/>
				<path style="fill:none;stroke:#263238;stroke-miterlimit:10;" d="M237.911,282.604c0,0,4.692,2.346,11.009-0.181"/>
				<path style="fill:none;stroke:#263238;stroke-miterlimit:10;" d="M215.533,275.927c0,0,2.887-4.331,10.648-1.624"/>
				<path style="fill:none;stroke:#263238;stroke-miterlimit:10;" d="M238.091,275.205c0,0,5.234-3.609,10.287,0.722"/>
				<path style="fill:none;stroke:#263238;stroke-miterlimit:10;" d="M226,284.95c0,0-3.429,2.707-5.053,3.248"/>
				<path style="fill:none;stroke:#263238;stroke-miterlimit:10;" d="M237.55,284.409c0,0,3.79,3.97,6.316,4.873"/>
			</g>
			<path style="fill:#92E3A9;stroke:#263238;stroke-miterlimit:10;" d="M270.491,402.253c0,0,4.903-3.677,12.747-8.58
				c7.844-4.903,15.443-3.432,19.61,1.226c4.167,4.657,4.658,17.649-1.716,23.287c-6.373,5.638-14.953,4.167-20.346,2.696
				c-5.393-1.471-12.011-7.109-12.502-8.334C267.794,411.323,270.491,402.253,270.491,402.253z"/>
			<g>
				<path style="fill:#FFFFFF;stroke:#263238;stroke-miterlimit:10;" d="M273.677,399.556c0,0,2.451-2.942,5.883-3.187
					c3.432-0.245,9.56,2.942,11.031,10.786s-1.961,14.218-6.128,16.179c-4.167,1.961-10.786,0.735-12.257-1.471
					c-1.471-2.206-2.941-6.373-2.941-6.373L273.677,399.556z"/>
				<path style="fill:#FFFFFF;stroke:#263238;stroke-miterlimit:10;" d="M269.02,391.222c0,0-13.482-11.031-14.953-11.521
					c-1.471-0.49-11.766,2.696-11.766,2.696l2.697,10.05c0,0-1.226,0.98-5.148-2.451c-3.922-3.432-6.373-8.089-7.844-6.618
					c-1.471,1.471-2.206,4.412,1.226,8.089c3.432,3.677,8.089,8.58,10.541,12.011c2.451,3.432,9.56,5.148,9.56,5.148
					s1.716,3.187,8.335,6.373c6.618,3.187,16.914,5.148,16.914,5.148s7.109-7.844,4.412-14.708
					c-2.696-6.864-9.315-5.883-9.315-5.883l-3.187-0.735L269.02,391.222z"/>
				<g>
					<path style="fill:#FFFFFF;stroke:#263238;stroke-miterlimit:10;" d="M250.797,377.527c0,0-8.031-6.502-10.105-6.205
						c-2.073,0.297-6.706,2.554-8.524,3.828c-1.817,1.275-0.19,3.737,2.001,3.655c2.191-0.082,5.124-0.849,5.124-0.849l1.29-0.706
						l5.825,9.108"/>
					<line style="fill:#FFFFFF;stroke:#263238;stroke-miterlimit:10;" x1="240.585" y1="377.249" x2="243.713" y2="375.816"/>
				</g>
				<g>
					<path style="fill:#FFFFFF;stroke:#263238;stroke-miterlimit:10;" d="M259.992,377.055c0,0-8.031-6.502-10.105-6.205
						c-2.073,0.297-6.706,2.554-8.524,3.828c-1.817,1.275-0.19,3.737,2.001,3.655c2.191-0.082,5.124-0.849,5.124-0.849l1.29-0.706
						l5.825,9.107"/>
					<line style="fill:#FFFFFF;stroke:#263238;stroke-miterlimit:10;" x1="249.78" y1="376.777" x2="252.908" y2="375.344"/>
				</g>
				<g>
					<path style="fill:#FFFFFF;stroke:#263238;stroke-miterlimit:10;" d="M267.304,383.623c0,0-3.922-9.56-5.883-10.296
						c-1.961-0.735-7.109-0.981-9.315-0.735c-2.206,0.245-1.961,3.187,0,4.167c1.961,0.98,4.903,1.716,4.903,1.716h1.471
						l0.736,10.786"/>
					<line style="fill:#FFFFFF;stroke:#263238;stroke-miterlimit:10;" x1="258.479" y1="378.475" x2="261.911" y2="378.72"/>
				</g>
				<path style="fill:#FFFFFF;stroke:#263238;stroke-miterlimit:10;" d="M269.51,400.782c0,0,2.206-11.766,1.716-12.992
					c-0.49-1.226-4.658-6.618-5.883-6.618c-1.226,0-3.677,2.451-2.696,4.903s2.942,2.697,2.942,2.697v6.864l-2.206,2.942"/>
			</g>
			<polygon style="fill:#263238;stroke:#263238;stroke-miterlimit:10;" points="245.019,414.447 201.078,414.447 198.636,361.694 
				247.46,361.694 			"/>
			<g>
				<path style="fill:#92E3A9;stroke:#263238;stroke-miterlimit:10;" d="M178.438,391.314c0,0-17.233-12.502-18.922-13.178
					c-1.69-0.676-11.151,3.379-16.557,7.434c-5.406,4.055-5.069,8.11-3.041,13.178c2.027,5.069,10.137,11.489,13.178,13.854
					c3.041,2.365,17.571,1.014,17.571,1.014L178.438,391.314z"/>
				<path style="fill:#FFFFFF;stroke:#263238;stroke-miterlimit:10;" d="M181.817,393.003c0,0-3.717-5.406-5.406-5.744
					c-1.69-0.338-6.758,3.379-9.461,6.758s-5.406,12.502-5.406,17.233c0,4.731,8.11,6.082,9.461,6.082
					c1.352,0,3.379-4.055,5.744-5.406C179.114,410.574,181.817,393.003,181.817,393.003z"/>
				<g>
					<path style="fill:#FFFFFF;stroke:#263238;stroke-miterlimit:10;" d="M232.495,409.852c0,0,6.128,0,7.599-0.981
						c1.471-0.98,6.128-7.844,6.864-9.315c0.735-1.471-2.206-1.471-3.922,1.716c-1.716,3.187-8.334,5.638-10.05,6.618
						c-1.716,0.98-5.638,1.716-5.638,1.716L232.495,409.852z"/>
					<path style="fill:#FFFFFF;stroke:#263238;stroke-miterlimit:10;" d="M178.438,391.314l24.667,2.703
						c0,0,4.055-11.489,5.744-11.827s9.123-3.717,10.475-4.731c1.352-1.014,3.717-2.365,2.365,1.352
						c-1.352,3.717-8.785,7.434-8.785,7.434s6.758,4.393,8.785,4.731c2.028,0.338,16.219-2.703,16.219-2.703
						s10.475-4.055,11.489-3.379c1.014,0.676-1.689,3.379-1.689,3.379s2.027-1.352,2.703,0.338c0.676,1.689-1.69,5.068-1.69,5.068
						s1.014,0.676,0.338,3.379c-0.676,2.703-9.799,10.137-11.827,11.489c-2.027,1.352-12.84,1.69-19.936,1.69
						c-7.096,0-15.543-1.352-15.543-1.352s-28.384,4.731-29.735,4.731S163.909,399.761,178.438,391.314z"/>
					<path style="fill:#FFFFFF;stroke:#263238;stroke-miterlimit:10;" d="M247.708,388.273c0,0-13.178,10.137-14.868,10.137
						s-11.826,2.703-11.826,2.703"/>
					<path style="fill:#FFFFFF;stroke:#263238;stroke-miterlimit:10;" d="M248.722,393.679c0,0-10.475,9.123-11.489,9.799
						c-1.014,0.676-10.813,2.365-10.813,2.365"/>
				</g>
			</g>
			<path style="fill:#263238;stroke:#263238;stroke-miterlimit:10;" d="M342.035,482.258c-9.086-14.907-36.851-57.817-54.454-56.141
				c-21.288,2.027-89.206,29.735-89.206,29.735l123.224,26.405H342.035z"/>
		</g>
		<g>
			<path style="fill:#D4D4D4;stroke:#263238;stroke-miterlimit:10;" d="M190.926,482.258V425.96c0-3.277-2.595-5.934-5.796-5.934
				h-43.451c-3.201,0-5.796,2.657-5.796,5.934v56.298H190.926z"/>
			<path style="fill:#D4D4D4;stroke:#263238;stroke-miterlimit:10;" d="M205.118,482.258V426.15c0-3.382-2.515-6.123-5.617-6.123
				H169.92c-3.102,0-5.617,2.742-5.617,6.123v56.108H205.118z"/>
		</g>
	</g>
</g>
<g id="Line">
	<g>
		<line style="fill:none;stroke:#263238;stroke-miterlimit:10;" x1="54.949" y1="482.258" x2="29.097" y2="482.258"/>
		<line style="fill:none;stroke:#263238;stroke-miterlimit:10;" x1="478.421" y1="482.258" x2="66.151" y2="482.258"/>
	</g>
</g>
</svg>
